<?xml version="1.0" encoding="UTF-8" standalone="no"?> <!-- Created with Vectornator for iOS (http://vectornator.io/) --><!DOCTYPE svg PUBLIC "-//W3C//DTD SVG 1.1//EN" "http://www.w3.org/Graphics/SVG/1.1/DTD/svg11.dtd">
<svg height="100%" style="fill-rule:evenodd;clip-rule:evenodd;stroke-linecap:round;stroke-linejoin:round;" xmlns:xlink="http://www.w3.org/1999/xlink" xmlns="http://www.w3.org/2000/svg" xml:space="preserve" width="100%" xmlns:vectornator="http://vectornator.io" version="1.1" viewBox="0 0 1024 611.577">
<metadata>
<vectornator:setting key="DisplayWhiteBackground" value="0"/>
<vectornator:setting key="RulersVisible" value="1"/>
<vectornator:setting key="Units" value="Pixels"/>
<vectornator:setting key="New" value="1"/>
<vectornator:setting key="DynamicGuides" value="0"/>
<vectornator:setting key="GuidesVisible" value="1"/>
<vectornator:setting key="SnapToPoints" value="1"/>
<vectornator:setting key="SnapToGrid" value="1"/>
<vectornator:setting key="SnapToGuides" value="1"/>
<vectornator:setting key="DimensionsVisible" value="1"/>
<vectornator:setting key="SnapToEdges" value="0"/>
</metadata>
<defs/>
<g id="Layer 2" vectornator:layerName="Layer 2">
<path d="M216.172+167.717C187.009+167.717+165.507+177.479+151.603+192.779C137.699+208.094+131.425+228.658+131.425+249.971C131.425+267.229+136.927+283.294+146.259+296.453C154.709+308.387+159.674+322.509+159.674+336.921L159.674+355.725L167.745+355.725L167.745+336.921C167.745+320.78+162.212+305.143+152.912+292.016C144.478+280.112+139.497+265.608+139.497+249.971C139.497+230.157+145.329+211.552+157.656+197.981C169.984+184.395+188.837+175.551+216.172+175.551C243.616+175.551+261.398+183.308+273.142+195.166C284.886+207.008+290.719+223.349+292.878+241.036L292.973+241.831L312.331+274.206C313.324+275.95+312.819+277.695+311.07+278.659L292.847+287.502L292.847+311.064C292.847+325.722+280.425+337.12+265.37+335.774L265.307+335.759L248.456+334.703L248.456+355.725L256.527+355.725L256.527+343.057L264.63+343.562C284.287+345.352+300.918+330.098+300.918+311.064L300.918+292.337L314.979+285.513C320.481+282.545+322.404+275.69+319.377+270.396L319.361+270.366L300.602+239.001C298.206+220.656+292.059+202.954+278.959+189.719C265.575+176.224+245.224+167.717+216.172+167.717Z" opacity="1" fill="#8badaa"/>
</g>
<g id="Layer 1" vectornator:layerName="Layer 1">
<g opacity="1">
<path d="M244.818+300.017L244.818+295.354C244.818+293.914+243.995+292.988+242.692+292.645L237.034+291.274C236.691+290.313+236.348+289.388+235.868+288.565L238.954+283.593C239.64+282.461+239.537+281.124+238.577+280.164L235.251+276.872C234.291+275.946+232.919+275.775+231.753+276.495L226.884+279.546C226.027+279.135+225.135+278.723+224.21+278.449L222.838+272.791C222.529+271.42+221.569+270.631+220.163+270.631L215.534+270.631C214.163+270.631+213.168+271.42+212.86+272.791L211.454+278.381C210.425+278.723+209.533+279.135+208.779+279.478L203.807+276.495C202.607+275.809+201.338+275.809+200.378+276.803L197.086+280.164C196.195+281.124+195.955+282.392+196.641+283.524L199.761+288.565C199.315+289.353+198.938+290.279+198.629+291.274L192.869+292.645C191.566+292.988+190.743+293.914+190.743+295.354L190.743+300.017C190.743+301.458+191.566+302.418+192.869+302.726L198.561+304.098C198.904+305.058+199.247+306.018+199.727+306.841L196.641+311.847C195.955+312.979+196.16+314.248+197.086+315.208L200.378+318.568C201.338+319.563+202.607+319.563+203.807+318.877L208.779+315.894C209.533+316.237+210.425+316.648+211.454+316.991L212.86+322.614C213.168+323.952+214.163+324.74+215.534+324.74L220.163+324.74C221.569+324.74+222.529+323.952+222.838+322.614L224.21+316.922C225.135+316.648+226.027+316.237+226.884+315.825L231.753+318.877C232.919+319.597+234.291+319.425+235.251+318.5L238.577+315.208C239.537+314.248+239.64+312.91+238.954+311.779L235.868+306.807C236.348+305.984+236.691+305.058+237.034+304.098L242.692+302.726C243.995+302.418+244.818+301.458+244.818+300.017ZM226.404+297.686C226.404+302.418+222.495+306.327+217.729+306.327C213.031+306.327+209.156+302.418+209.156+297.686C209.156+292.954+213.031+289.045+217.729+289.045C222.495+289.045+226.404+292.954+226.404+297.686ZM265.906+255.269L265.906+251.36C265.906+250.092+265.186+249.234+264.089+248.994L259.185+247.863C258.842+246.971+258.568+246.182+258.156+245.462L260.831+241.176C261.448+240.216+261.38+239.085+260.522+238.227L257.745+235.484C256.888+234.627+255.688+234.49+254.727+235.141L250.475+237.782C249.755+237.404+248.967+237.096+248.178+236.821L247.012+231.884C246.772+230.752+245.915+230.101+244.68+230.101L240.806+230.101C239.571+230.101+238.714+230.752+238.44+231.884L237.274+236.787C236.382+237.096+235.594+237.404+234.942+237.747L230.622+235.141C229.593+234.49+228.53+234.524+227.673+235.416L224.93+238.227C224.141+239.085+223.935+240.182+224.518+241.142L227.227+245.462C226.884+246.148+226.507+246.971+226.267+247.863L221.261+248.994C220.163+249.234+219.409+250.092+219.409+251.36L219.409+255.269C219.409+256.504+220.163+257.361+221.261+257.635L226.198+258.801C226.507+259.624+226.781+260.481+227.193+261.201L224.518+265.522C223.969+266.448+224.107+267.545+224.93+268.402L227.673+271.18C228.53+272.071+229.593+272.106+230.622+271.488L234.942+268.917C235.594+269.225+236.382+269.534+237.274+269.842L238.44+274.712C238.714+275.877+239.571+276.563+240.806+276.563L244.681+276.563C245.915+276.563+246.772+275.877+247.012+274.712L248.178+269.774C248.967+269.534+249.755+269.225+250.475+268.848L254.727+271.488C255.688+272.14+256.888+271.968+257.745+271.145L260.522+268.402C261.38+267.545+261.448+266.413+260.831+265.453L258.156+261.167C258.568+260.447+258.842+259.624+259.185+258.801L264.089+257.635C265.186+257.361+265.906+256.504+265.906+255.269ZM249.515+253.315C249.515+257.087+246.429+260.173+242.623+260.173C238.886+260.173+235.799+257.087+235.799+253.315C235.799+249.543+238.886+246.457+242.623+246.457C246.429+246.457+249.515+249.543+249.515+253.315Z" opacity="1" fill="#8badaa"/>
</g>
<g opacity="1">
<path d="M172.882+212.062L173.042+216.723C173.092+218.162+173.946+219.059+175.261+219.357L180.962+220.532C181.338+221.48+181.713+222.394+182.221+223.199L179.308+228.275C178.662+229.429+178.811+230.762+179.803+231.689L183.241+234.864C184.232+235.756+185.609+235.88+186.749+235.12L191.51+231.902C192.381+232.284+193.287+232.665+194.221+232.907L195.787+238.514C196.143+239.874+197.13+240.629+198.535+240.581L203.161+240.421C204.532+240.374+205.498+239.551+205.76+238.17L206.972+232.535C207.988+232.157+208.865+231.715+209.607+231.347L214.679+234.157C215.902+234.801+217.17+234.757+218.095+233.73L221.269+230.258C222.127+229.268+222.323+227.991+221.599+226.884L218.307+221.954C218.725+221.151+219.07+220.212+219.344+219.208L225.054+217.638C226.344+217.251+227.135+216.297+227.085+214.858L226.924+210.197C226.875+208.758+226.019+207.827+224.706+207.563L218.97+206.389C218.594+205.441+218.219+204.493+217.711+203.687L220.622+198.578C221.268+197.423+221.019+196.162+220.061+195.235L216.655+191.99C215.661+191.029+214.393+191.073+213.217+191.8L208.351+194.953C207.585+194.636+206.68+194.255+205.64+193.948L204.041+188.376C203.687+187.051+202.666+186.297+201.295+186.344L196.669+186.504C195.264+186.552+194.331+187.373+194.069+188.721L192.894+194.457C191.979+194.763+191.102+195.205+190.259+195.645L185.288+192.763C184.098+192.084+182.733+192.303+181.805+193.261L178.595+196.666C177.668+197.658+177.612+198.998+178.336+200.106L181.592+204.968C181.14+205.807+180.83+206.744+180.52+207.716L174.913+209.282C173.621+209.635+172.832+210.623+172.882+212.062ZM191.365+213.757C191.201+209.028+194.973+204.987+199.737+204.822C204.432+204.66+208.439+208.433+208.602+213.163C208.765+217.892+205.028+221.932+200.333+222.094C195.569+222.258+191.528+218.487+191.365+213.757ZM153.349+257.511L153.484+261.418C153.528+262.686+154.277+263.518+155.382+263.72L160.321+264.681C160.695+265.561+160.996+266.339+161.432+267.045L158.907+271.421C158.323+272.401+158.431+273.53+159.317+274.357L162.188+277.003C163.074+277.83+164.278+277.926+165.215+277.242L169.374+274.456C170.106+274.808+170.905+275.09+171.703+275.336L173.038+280.231C173.317+281.354+174.196+281.975+175.43+281.933L179.302+281.799C180.536+281.756+181.37+281.076+181.605+279.935L182.602+274.995C183.482+274.656+184.259+274.32+184.899+273.955L189.307+276.41C190.357+277.026+191.418+276.955+192.244+276.034L194.889+273.13C195.647+272.246+195.815+271.142+195.2+270.203L192.343+265.978C192.662+265.281+193.011+264.445+193.22+263.546L198.184+262.243C199.273+261.965+199.997+261.082+199.953+259.814L199.818+255.907C199.776+254.674+198.992+253.843+197.886+253.607L192.911+252.612C192.575+251.8+192.271+250.953+191.835+250.247L194.359+245.837C194.875+244.893+194.7+243.801+193.848+242.973L191.011+240.291C190.123+239.43+189.06+239.432+188.053+240.085L183.824+242.804C183.162+242.518+182.363+242.237+181.462+241.959L180.128+237.133C179.814+235.977+178.934+235.321+177.7+235.364L173.828+235.498C172.594+235.54+171.761+236.255+171.561+237.429L170.566+242.404C169.786+242.671+169.009+243.006+168.302+243.408L163.962+240.916C162.98+240.298+161.786+240.511+160.958+241.363L158.277+244.2C157.449+245.086+157.42+246.22+158.07+247.158L160.891+251.349C160.504+252.083+160.258+252.915+159.944+253.749L155.084+255.084C153.997+255.396+153.307+256.277+153.349+257.511ZM169.797+258.899C169.667+255.129+172.645+251.939+176.449+251.807C180.184+251.679+183.375+254.656+183.505+258.426C183.635+262.196+180.657+265.386+176.922+265.515C173.118+265.646+169.927+262.669+169.797+258.899Z" opacity="1" fill="#8badaa"/>
</g>
<g opacity="1">
<path d="M353.18+333.669L337.723+333.669L336.823+338.035L347.41+338.035L347.119+339.555C345.901+345.938+341.084+350.083+334.917+350.083C327.904+350.083+324.066+344.833+324.066+337.151C324.066+328.53+328.221+318.085+338.834+318.085C344.71+318.085+348.442+321.705+348.786+327.397L353.603+327.397L353.603+327.01C353.391+319.135+347.78+313.498+338.834+313.498C325.204+313.498+319.17+326.568+319.17+337.317C319.17+347.513+324.966+354.642+334.917+354.642C343.466+354.642+349.977+349.226+351.936+339.776L353.18+333.669Z" opacity="1" fill="#f8f8f8"/>
<path d="M354.344+354.007L358.949+354.007L362.311+337.344C363.369+332.233+365.725+329.469+370.383+329.469C371.653+329.469+373.215+329.801+373.824+330.05L374.803+325.49C374.194+325.186+372.977+324.855+371.627+324.855C368.16+324.855+365.619+326.485+363.899+329.082L363.793+329.082L364.56+325.269L360.193+325.269L354.344+354.007Z" opacity="1" fill="#f8f8f8"/>
<path d="M388.566+324.772C380.546+324.772+374.459+332.288+374.459+341.876C374.459+349.503+378.958+354.504+385.999+354.504C394.018+354.504+400.105+346.988+400.105+337.4C400.105+329.773+395.606+324.772+388.566+324.772ZM385.999+350.276C381.79+350.276+379.117+346.905+379.117+341.738C379.117+334.498+383.087+329+388.566+329C392.774+329+395.447+332.371+395.447+337.538C395.447+344.777+391.477+350.276+385.999+350.276Z" opacity="1" fill="#f8f8f8"/>
<path d="M430.675+325.269L426.07+325.269L422.549+342.512C421.623+347.016+418.315+350.249+413.948+350.249C410.242+350.249+408.443+348.591+408.443+344.971C408.443+344.308+408.601+342.76+408.813+341.71L412.174+325.269L407.516+325.269L404.075+342.401C403.837+343.589+403.678+345.358+403.678+346.491C403.678+350.939+406.881+354.504+412.148+354.504C416.356+354.504+419.876+352.1+421.2+349.972L421.305+349.972L420.432+354.007L424.826+354.007L430.675+325.269Z" opacity="1" fill="#f8f8f8"/>
<path d="M433.321+363.623L436.445+348.259L436.577+348.259C437.636+351.851+441.129+354.504+445.417+354.504C453.172+354.504+459.1+347.154+459.1+337.206C459.1+329.663+455.21+324.772+448.937+324.772C445.364+324.772+441.923+326.927+440.256+329.911L440.176+329.911L441.129+325.269L436.603+325.269L428.796+363.623L433.321+363.623ZM445.311+350.249C441.023+350.249+438.244+346.905+438.244+342.18C438.244+335.217+441.897+329+447.878+329C452.086+329+454.574+332.177+454.574+337.538C454.574+344.943+450.578+350.249+445.311+350.249Z" opacity="1" fill="#f8f8f8"/>
</g>
<g opacity="1">
<path d="M353.187+254.471L345.061+294.344L349.958+294.344L352.843+280.113L362.08+280.113C370.84+280.113+377.563+274.559+377.563+265.247C377.563+258.643+372.693+254.471+366.605+254.471L353.187+254.471ZM357.157+258.892L364.964+258.892C369.623+258.892+372.587+261.379+372.587+265.69C372.587+272.1+368.352+275.692+361.788+275.692L353.743+275.692L357.157+258.892Z" opacity="1" fill="#f8f8f8"/>
<path d="M380.262+273.675C380.262+277.627+382.327+279.948+387.329+281.578L389.711+282.352C393.205+283.485+394.131+284.286+394.131+286.137C394.131+288.79+391.643+290.89+388.308+290.89C384.471+290.89+382.115+288.845+381.692+285.944L377.086+285.944C377.245+291.001+381.559+294.841+388.097+294.841C394.237+294.841+398.763+291.028+398.763+285.861C398.763+282.075+396.725+279.837+391.802+278.234L389.42+277.461C385.979+276.356+384.788+275.278+384.788+273.233C384.788+270.829+386.932+269.061+390.426+269.061C393.602+269.061+395.984+271.078+396.222+273.896L400.615+273.896C400.563+268.757+396.434+265.137+390.479+265.137C384.391+265.137+380.262+268.729+380.262+273.675Z" opacity="1" fill="#f8f8f8"/>
<path d="M401.833+304.817C405.618+304.817+408.397+303.352+411.573+297.494L428.776+265.607L423.695+265.607L411.732+289.039L411.652+289.039L408.344+265.607L403.791+265.607L408.291+294.178L407.391+296.057C405.644+299.705+403.686+300.782+401.886+300.782C400.827+300.782+399.98+300.589+399.398+300.34L398.71+304.347C399.345+304.568+400.563+304.817+401.833+304.817Z" opacity="1" fill="#f8f8f8"/>
<path d="M441.533+265.109C433.249+265.109+427.426+272.625+427.426+282.269C427.426+289.591+431.317+294.841+438.754+294.841C444.551+294.841+449.447+290.669+450.77+285.225L446.244+285.225C445.08+288.486+442.407+290.614+438.807+290.614C434.784+290.614+432.138+287.408+432.138+282.103C432.138+274.615+436.002+269.337+441.48+269.337C445.556+269.337+447.885+272.073+448.018+275.305L452.491+275.305L452.491+275.112C452.491+269.973+448.812+265.109+441.533+265.109Z" opacity="1" fill="#f8f8f8"/>
<path d="M453.179+294.344L457.811+294.344L461.331+277.102C462.257+272.542+465.539+269.365+469.8+269.365C473.532+269.365+475.755+271.686+475.755+275.084C475.755+275.913+475.623+276.853+475.411+277.903L471.944+294.344L476.576+294.344L480.202+277.074C480.44+275.886+480.572+274.753+480.572+273.73C480.572+269.199+477.131+265.109+471.759+265.109C467.497+265.109+464.401+267.43+462.866+270.083L462.76+270.083L465.936+254.471L461.304+254.471L453.179+294.344Z" opacity="1" fill="#f8f8f8"/>
<path d="M498.199+265.109C490.18+265.109+484.092+272.625+484.092+282.214C484.092+289.84+488.592+294.841+495.632+294.841C503.651+294.841+509.739+287.325+509.739+277.737C509.739+270.111+505.239+265.109+498.199+265.109ZM495.632+290.614C491.424+290.614+488.75+287.243+488.75+282.075C488.75+274.836+492.72+269.337+498.199+269.337C502.407+269.337+505.08+272.708+505.08+277.875C505.08+285.115+501.11+290.614+495.632+290.614Z" opacity="1" fill="#f8f8f8"/>
<path d="M514.026+303.96L517.149+288.597L517.282+288.597C518.34+292.189+521.834+294.841+526.122+294.841C533.876+294.841+539.805+287.491+539.805+277.544C539.805+270+535.914+265.109+529.642+265.109C526.069+265.109+522.628+267.265+520.961+270.249L520.881+270.249L521.834+265.607L517.308+265.607L509.5+303.96L514.026+303.96ZM526.016+290.586C521.728+290.586+518.949+287.243+518.949+282.517C518.949+275.554+522.602+269.337+528.583+269.337C532.791+269.337+535.279+272.515+535.279+277.875C535.279+285.281+531.283+290.586+526.016+290.586Z" opacity="1" fill="#f8f8f8"/>
<path d="M541.658+294.344L546.289+294.344L549.81+277.102C550.736+272.542+554.018+269.365+558.279+269.365C562.011+269.365+564.234+271.686+564.234+275.084C564.234+275.913+564.102+276.853+563.89+277.903L560.423+294.344L565.055+294.344L568.68+277.074C568.919+275.886+569.051+274.753+569.051+273.73C569.051+269.199+565.61+265.109+560.238+265.109C555.976+265.109+552.88+267.43+551.345+270.083L551.239+270.083L554.415+254.471L549.783+254.471L541.658+294.344Z" opacity="1" fill="#f8f8f8"/>
<path d="M580.141+294.841C583.528+294.841+586.44+293.294+588.319+290.835L588.398+290.835L587.684+294.344L592.104+294.344L595.889+275.748C595.994+275.084+596.074+274.228+596.074+273.316C596.074+268.48+592.21+265.109+586.334+265.109C579.929+265.109+575.483+268.812+574.662+273.979L579.479+273.979C580.035+271.244+582.232+269.337+585.963+269.337C589.51+269.337+591.442+271.133+591.442+274.007C591.442+274.504+591.442+274.946+591.336+275.416L590.966+277.212L582.734+277.654C575.694+278.041+571.512+281.219+571.512+286.856C571.512+291.553+575.403+294.841+580.141+294.841ZM581.358+290.752C578.288+290.752+576.171+289.039+576.171+286.358C576.171+283.457+578.553+281.689+582.682+281.467L590.198+281.053L589.51+284.258C588.69+288.099+585.302+290.752+581.358+290.752Z" opacity="1" fill="#f8f8f8"/>
<path d="M597.874+294.344L602.479+294.344L605.84+277.682C606.899+272.57+609.254+269.807+613.912+269.807C615.183+269.807+616.744+270.138+617.353+270.387L618.332+265.828C617.724+265.524+616.506+265.192+615.156+265.192C611.689+265.192+609.148+266.822+607.428+269.42L607.322+269.42L608.09+265.607L603.723+265.607L597.874+294.344Z" opacity="1" fill="#f8f8f8"/>
<path d="M616.347+294.344L620.979+294.344L624.658+276.245C625.452+272.238+628.681+269.365+631.857+269.365C634.927+269.365+636.674+271.603+636.674+274.283C636.674+275.112+636.542+276.024+636.33+277.046L632.81+294.344L637.442+294.344L641.121+276.3C641.994+271.962+645.17+269.365+648.346+269.365C651.39+269.365+653.136+271.603+653.136+274.283C653.136+275.112+653.031+276.024+652.819+277.046L649.299+294.344L653.93+294.344L657.609+276.217C657.848+275.057+657.953+273.952+657.953+272.929C657.953+268.342+654.645+265.109+650.172+265.109C645.699+265.109+642.735+267.707+641.041+270.249L640.962+270.249C640.353+267.679+637.68+265.109+633.71+265.109C630.163+265.109+627.093+267.513+625.77+270.221L625.664+270.221L626.59+265.607L622.197+265.607L616.347+294.344Z" opacity="1" fill="#f8f8f8"/>
<path d="M668.911+294.841C672.299+294.841+675.21+293.294+677.089+290.835L677.168+290.835L676.454+294.344L680.874+294.344L684.659+275.748C684.764+275.084+684.844+274.228+684.844+273.316C684.844+268.48+680.98+265.109+675.104+265.109C668.699+265.109+664.253+268.812+663.432+273.979L668.249+273.979C668.805+271.244+671.002+269.337+674.734+269.337C678.28+269.337+680.212+271.133+680.212+274.007C680.212+274.504+680.212+274.946+680.106+275.416L679.736+277.212L671.505+277.654C664.464+278.041+660.283+281.219+660.283+286.856C660.283+291.553+664.173+294.841+668.911+294.841ZM670.128+290.752C667.058+290.752+664.941+289.039+664.941+286.358C664.941+283.457+667.323+281.689+671.452+281.467L678.968+281.053L678.28+284.258C677.46+288.099+674.072+290.752+670.128+290.752Z" opacity="1" fill="#f8f8f8"/>
<path d="M702.391+265.109C694.107+265.109+688.285+272.625+688.285+282.269C688.285+289.591+692.175+294.841+699.612+294.841C705.409+294.841+710.305+290.669+711.628+285.225L707.103+285.225C705.938+288.486+703.265+290.614+699.665+290.614C695.642+290.614+692.996+287.408+692.996+282.103C692.996+274.615+696.86+269.337+702.339+269.337C706.414+269.337+708.744+272.073+708.876+275.305L713.349+275.305L713.349+275.112C713.349+269.973+709.67+265.109+702.391+265.109Z" opacity="1" fill="#f8f8f8"/>
<path d="M729.679+265.109C721.659+265.109+715.572+272.625+715.572+282.214C715.572+289.84+720.071+294.841+727.112+294.841C735.131+294.841+741.218+287.325+741.218+277.737C741.218+270.111+736.719+265.109+729.679+265.109ZM727.112+290.614C722.903+290.614+720.23+287.243+720.23+282.075C720.23+274.836+724.2+269.337+729.679+269.337C733.887+269.337+736.56+272.708+736.56+277.875C736.56+285.115+732.59+290.614+727.112+290.614Z" opacity="1" fill="#f8f8f8"/>
<path d="M743.256+294.344L747.915+294.344L756.04+254.471L751.382+254.471L743.256+294.344Z" opacity="1" fill="#f8f8f8"/>
<path d="M769.909+265.109C761.889+265.109+755.802+272.625+755.802+282.214C755.802+289.84+760.301+294.841+767.341+294.841C775.361+294.841+781.448+287.325+781.448+277.737C781.448+270.111+776.949+265.109+769.909+265.109ZM767.341+290.614C763.133+290.614+760.46+287.243+760.46+282.075C760.46+274.836+764.43+269.337+769.909+269.337C774.117+269.337+776.79+272.708+776.79+277.875C776.79+285.115+772.82+290.614+767.341+290.614Z" opacity="1" fill="#f8f8f8"/>
<path d="M794.02+305.176C800.901+305.176+806.062+301.086+807.73+292.852L813.235+265.607L808.709+265.607L807.545+271.741L807.412+271.741C806.459+267.983+802.992+265.192+798.625+265.109C789.679+264.943+784.836+273.648+784.836+282.103C784.836+289.564+788.965+294.344+795.185+294.344C798.678+294.344+802.145+292.272+803.839+289.287L803.945+289.287L803.098+292.935C801.828+298.378+798.784+301.086+794.02+301.086C790.447+301.086+787.959+299.345+787.589+296.72L782.851+296.72C782.851+301.639+787.694+305.176+794.02+305.176ZM796.217+290.116C791.77+290.116+789.441+286.8+789.441+281.992C789.441+274.891+793.067+269.365+798.705+269.365C802.675+269.365+805.771+272.708+805.771+277.433C805.771+284.258+802.198+290.116+796.217+290.116Z" opacity="1" fill="#f8f8f8"/>
<path d="M814.691+304.817C818.475+304.817+821.254+303.352+824.431+297.494L841.634+265.607L836.552+265.607L824.589+289.039L824.51+289.039L821.202+265.607L816.649+265.607L821.149+294.178L820.249+296.057C818.502+299.705+816.543+300.782+814.744+300.782C813.685+300.782+812.838+300.589+812.256+300.34L811.568+304.347C812.203+304.568+813.42+304.817+814.691+304.817Z" opacity="1" fill="#f8f8f8"/>
</g>
<g opacity="1">
<path d="M342.265+224.926L323.447+224.926L326.226+211.221L344.064+211.221L344.964+206.8L327.126+206.8L329.746+194.006L348.564+194.006L349.49+189.53L325.776+189.53L317.65+229.403L341.365+229.403L342.265+224.926Z" opacity="1" fill="#f8f8f8"/>
<path d="M356.133+229.9C359.521+229.9+362.433+228.353+364.312+225.893L364.391+225.893L363.676+229.403L368.096+229.403L371.881+210.806C371.987+210.143+372.066+209.287+372.066+208.375C372.066+203.539+368.202+200.168+362.327+200.168C355.922+200.168+351.475+203.871+350.655+209.038L355.472+209.038C356.028+206.302+358.224+204.396+361.956+204.396C365.503+204.396+367.435+206.192+367.435+209.066C367.435+209.563+367.435+210.005+367.329+210.475L366.958+212.271L358.727+212.713C351.687+213.1+347.505+216.278+347.505+221.914C347.505+226.612+351.396+229.9+356.133+229.9ZM357.351+225.811C354.281+225.811+352.163+224.097+352.163+221.417C352.163+218.516+354.545+216.747+358.674+216.526L366.191+216.112L365.503+219.317C364.682+223.158+361.294+225.811+357.351+225.811Z" opacity="1" fill="#f8f8f8"/>
<path d="M377.413+208.734C377.413+212.685+379.477+215.006+384.479+216.637L386.862+217.41C390.355+218.543+391.281+219.345+391.281+221.196C391.281+223.849+388.794+225.949+385.459+225.949C381.621+225.949+379.265+223.904+378.842+221.003L374.237+221.003C374.396+226.059+378.71+229.9+385.247+229.9C391.387+229.9+395.913+226.087+395.913+220.92C395.913+217.134+393.875+214.896+388.952+213.293L386.57+212.52C383.13+211.414+381.939+210.337+381.939+208.292C381.939+205.888+384.082+204.119+387.576+204.119C390.752+204.119+393.134+206.137+393.372+208.955L397.766+208.955C397.713+203.815+393.584+200.196+387.629+200.196C381.542+200.196+377.413+203.788+377.413+208.734Z" opacity="1" fill="#f8f8f8"/>
<path d="M408.591+229.624C409.517+229.624+410.444+229.513+411.37+229.347L412.19+225.341C411.582+225.424+411.105+225.451+410.285+225.451C408.114+225.451+406.712+224.567+406.712+222.384C406.712+221.666+406.818+220.809+407.029+219.787L410.126+204.644L416.028+204.644L416.822+200.665L410.92+200.665L412.376+193.509L407.744+193.509L406.341+200.665L402.239+200.665L401.445+204.644L405.521+204.644L402.106+221.279C401.921+222.163+401.842+222.992+401.842+223.738C401.842+227.69+404.753+229.624+408.591+229.624Z" opacity="1" fill="#f8f8f8"/>
<path d="M444.93+229.403C453.585+229.403+459.407+224.125+459.407+216.747C459.407+212.796+457.078+209.452+452.87+208.762L452.897+208.651C457.661+207.297+461.181+203.346+461.181+198.317C461.181+192.984+456.84+189.53+450.7+189.53L437.175+189.53L429.05+229.403L444.93+229.403ZM441.145+193.923L448.874+193.923C453.638+193.923+456.231+195.692+456.231+199.339C456.231+203.705+452.235+206.717+446.412+206.717L438.551+206.717L441.145+193.923ZM434.82+225.009L437.678+211L446.518+211C451.705+211+454.352+213.072+454.352+217.162C454.352+221.638+450.435+225.009+444.771+225.009L434.82+225.009Z" opacity="1" fill="#f8f8f8"/>
<path d="M471.926+229.9C475.314+229.9+478.225+228.353+480.105+225.893L480.184+225.893L479.469+229.403L483.889+229.403L487.674+210.806C487.78+210.143+487.859+209.287+487.859+208.375C487.859+203.539+483.995+200.168+478.119+200.168C471.714+200.168+467.268+203.871+466.448+209.038L471.265+209.038C471.82+206.302+474.017+204.396+477.749+204.396C481.296+204.396+483.228+206.192+483.228+209.066C483.228+209.563+483.228+210.005+483.122+210.475L482.751+212.271L474.52+212.713C467.48+213.1+463.298+216.278+463.298+221.914C463.298+226.612+467.189+229.9+471.926+229.9ZM473.144+225.811C470.074+225.811+467.956+224.097+467.956+221.417C467.956+218.516+470.338+216.747+474.467+216.526L481.984+216.112L481.296+219.317C480.475+223.158+477.087+225.811+473.144+225.811Z" opacity="1" fill="#f8f8f8"/>
<path d="M491.009+239.875C494.794+239.875+497.573+238.411+500.749+232.553L517.952+200.665L512.871+200.665L500.908+224.097L500.828+224.097L497.52+200.665L492.967+200.665L497.467+229.237L496.567+231.116C494.82+234.763+492.862+235.841+491.062+235.841C490.003+235.841+489.156+235.648+488.574+235.399L487.886+239.406C488.521+239.627+489.738+239.875+491.009+239.875Z" opacity="1" fill="#f8f8f8"/>
</g>
</g>
</svg>
